# xmcd
#
# Track frame offsets:
#	150
#	14775
#	30150
#	45375
#	60602
#	76502
#	90152
#	104705
#	123980
#	139055
#	156307
#	173632
#	188932
#	201757
#	221035
#	236035
#	252460
#	267312
#	282462
#	300837
#
# Disc length: 4175 seconds
#
# Revision: 2
# Processed by: cddbd v1.5.2PL0 Copyright (c) Steve Scherf et al.
# Submitted via: EasyCDDAExtractor 15.3.0.1
#
DISCID=11104d14
DTITLE=Thalia - 20 Kilates Musicales
DYEAR=1996
DGENRE=Latin
TTITLE0=El Baile De Los Perros Y Gatos
TTITLE1=El Poder Del Amor
TTITLE2=Marimar
TTITLE3=Pienso En Ti
TTITLE4=Amarillo Azul
TTITLE5=Sudor
TTITLE6=Saliva
TTITLE7=Love
TTITLE8=Aerobico
TTITLE9=Talisman
TTITLE10=El Bombo De Tu Corazon
TTITLE11=Un Pacto Entre Los Dos
TTITLE12=Maria Mercedes
TTITLE13=En Silencio
TTITLE14=Fuego Cruzado
TTITLE15=Sangre
TTITLE16=La Vie En Rose
TTITLE17=Madrid
TTITLE18=Mundo De Cristal
TTITLE19=En La Intimidad
EXTD=
EXTT0=
EXTT1=
EXTT2=
EXTT3=
EXTT4=
EXTT5=
EXTT6=
EXTT7=
EXTT8=
EXTT9=
EXTT10=
EXTT11=
EXTT12=
EXTT13=
EXTT14=
EXTT15=
EXTT16=
EXTT17=
EXTT18=
EXTT19=
PLAYORDER=
